<svg viewBox="0 0 20 20" xmlns="http://www.w3.org/2000/svg"><path d="M3.412 6.063v2.625h3.764V6.062H3.412zm0 3.5v2.624h3.764V9.563H3.412zm0 3.5v2.624h3.764v-2.624H3.412zm4.706 2.624h3.764v-2.624H8.118v2.624zm4.705 0h3.765v-2.624h-3.765v2.624zm3.765-3.5V9.563h-3.765v2.624h3.765zm0-3.5V6.063h-3.765v2.625h3.765zm1.412 7c0 .349-.149.682-.413.929a1.468 1.468 0 01-.999.384H3.412c-.375 0-.734-.138-.998-.384A1.268 1.268 0 012 15.688V4.312C2.209 3.558 3.005 3 3.882 3h12.236c.877 0 1.673.557 1.882 1.313v11.375zm-6.118-3.5V9.563H8.118v2.624h3.764zm0-3.5V6.063H8.118v2.625h3.764z"/></svg>