<svg width="20" height="20" viewBox="0 0 20 20" xmlns="http://www.w3.org/2000/svg" xmlns:xlink="http://www.w3.org/1999/xlink"><defs><path id="a" d="M15 8H8v7H0V0h15z"/><path id="c" d="M0 10h10V0h5v15H0z"/></defs><g fill="none" fill-rule="evenodd"><g transform="translate(-2 -2)"><mask id="b" fill="#fff"><use xlink:href="#a"/></mask><g mask="url(#b)" stroke="#333" stroke-width="1.5"><g transform="translate(2 2)"><rect x=".8" y=".8" width="9.5" height="9.5" rx="1.5"/><path d="M9.5 5.3H1M5.3 9.5v-8" stroke-linecap="round"/></g></g></g><g opacity=".6" transform="translate(5 5)"><mask id="d" fill="#fff"><use xlink:href="#c"/></mask><path d="M13 14.5l1-.1.4-.4.1-1V6l-.1-1-.4-.4-1-.1H6l-1 .1-.4.4-.1 1v7l.1 1 .4.4 1 .1h7z" stroke="#333" mask="url(#d)"/></g><g stroke="#333" stroke-linecap="round" stroke-width="1.5"><path d="M13.3 13.3L8.7 8.8"/><path stroke-linejoin="round" d="M8.8 13.3V8.7h4.4"/></g></g></svg>
