<svg viewBox="0 0 20 20" fill="none" xmlns="http://www.w3.org/2000/svg">
<path d="M3.41176 6.0625V8.6875H7.17647V6.0625H3.41176ZM3.41176 9.5625V12.1875H7.17647V9.5625H3.41176ZM3.41176 13.0625V15.6875H7.17647V13.0625H3.41176ZM8.11765 15.6875H11.8824V13.0625H8.11765V15.6875ZM12.8235 15.6875H16.5882V13.0625H12.8235V15.6875ZM16.5882 12.1875V9.5625H12.8235V12.1875H16.5882ZM16.5882 8.6875V6.0625H12.8235V8.6875H16.5882ZM18 15.6875C18 16.0356 17.8513 16.3694 17.5865 16.6156C17.3217 16.8617 16.9627 17 16.5882 17H3.41176C3.03734 17 2.67825 16.8617 2.4135 16.6156C2.14874 16.3694 2 16.0356 2 15.6875V4.3125C2.20894 3.55738 3.00518 3 3.88235 3H16.1176C16.9948 3 17.7911 3.55738 18 4.3125V15.6875ZM11.8824 12.1875V9.5625H8.11765V12.1875H11.8824ZM11.8824 8.6875V6.0625H8.11765V8.6875H11.8824Z" fill="black"/>
</svg>
