<svg width="20" height="20" viewBox="0 0 20 20" xmlns="http://www.w3.org/2000/svg" xmlns:xlink="http://www.w3.org/1999/xlink"><defs><path id="a" d="M0 10h10V0h5v15H0z"/><path id="c" d="M15 8H8v7H0V0h15z"/></defs><g fill="none" fill-rule="evenodd"><g transform="translate(5 5)"><mask id="b" fill="#fff"><use xlink:href="#a"/></mask><path d="M13 14.3c.6 0 .7 0 .9-.2l.2-.2c.1-.2.2-.3.2-.8V5.9c0-.5 0-.6-.2-.8L14 5c-.2-.1-.3-.2-.8-.2H5.9c-.5 0-.6 0-.8.2L5 5c-.1.2-.2.3-.2.8v7.2c0 .5 0 .6.2.8l.2.2c.2.1.3.2.8.2h7.2z" stroke="#333" stroke-width="1.5" mask="url(#b)"/></g><g stroke="#333" stroke-linecap="round" stroke-width="1.5"><path d="M7.8 7.8l4.5 4.5"/><path stroke-linejoin="round" d="M7.8 12.3h4.5V7.7"/></g><g opacity=".6" transform="translate(-2 -2)"><mask id="d" fill="#fff"><use xlink:href="#c"/></mask><g mask="url(#d)" stroke="#333"><g transform="translate(2 2)"><rect x=".5" y=".5" width="10" height="10" rx="1.5"/><path d="M10.5 5.5H1M5.5 10.5V.5"/></g></g></g></g></svg>
